HIERARCHY
ROOT Hips
{
	OFFSET 0.00000 0.00000 0.00000
	CHANNELS 6 Xposition Yposition Zposition Zrotation Yrotation Xrotation 
	JOINT LHipJoint
	{
		OFFSET 0 0 0
		CHANNELS 3 Zrotation Yrotation Xrotation
		JOINT LeftUpLeg
		{
			OFFSET 1.77779 -1.88989 0.48267
			CHANNELS 3 Zrotation Yrotation Xrotation
			JOINT LeftLeg
			{
				OFFSET 2.53442 -6.96327 0.00000
				CHANNELS 3 Zrotation Yrotation Xrotation
				JOINT LeftFoot
				{
					OFFSET 2.71068 -7.44755 0.00000
					CHANNELS 3 Zrotation Yrotation Xrotation
					JOINT LeftToeBase
					{
						OFFSET 0.17992 -0.49431 2.22524
						CHANNELS 3 Zrotation Yrotation Xrotation
						End Site
						{
							OFFSET 0.00000 -0.00000 1.14687
						}
					}
				}
			}
		}
	}
	JOINT RHipJoint
	{
		OFFSET 0 0 0
		CHANNELS 3 Zrotation Yrotation Xrotation
		JOINT RightUpLeg
		{
			OFFSET -1.58469 -1.88989 0.48267
			CHANNELS 3 Zrotation Yrotation Xrotation
			JOINT RightLeg
			{
				OFFSET -2.60386 -7.15404 0.00000
				CHANNELS 3 Zrotation Yrotation Xrotation
				JOINT RightFoot
				{
					OFFSET -2.73334 -7.50979 0.00000
					CHANNELS 3 Zrotation Yrotation Xrotation
					JOINT RightToeBase
					{
						OFFSET -0.25618 -0.70384 2.21822
						CHANNELS 3 Zrotation Yrotation Xrotation
						End Site
						{
							OFFSET -0.00000 -0.00000 1.16381
						}
					}
				}
			}
		}
	}
	JOINT LowerBack
	{
		OFFSET 0 0 0
		CHANNELS 3 Zrotation Yrotation Xrotation
		JOINT Spine
		{
			OFFSET 0.03410 2.01612 -0.22230
			CHANNELS 3 Zrotation Yrotation Xrotation
			JOINT Spine1
			{
				OFFSET 0.03465 2.03012 0.00937
				CHANNELS 3 Zrotation Yrotation Xrotation
				JOINT Neck
				{
					OFFSET 0 0 0
					CHANNELS 3 Zrotation Yrotation Xrotation
					JOINT Neck1
					{
						OFFSET -0.00219 1.70459 0.20857
						CHANNELS 3 Zrotation Yrotation Xrotation
						JOINT Head
						{
							OFFSET 0.02518 1.72339 -0.22179
							CHANNELS 3 Zrotation Yrotation Xrotation
							End Site
							{
								OFFSET 0.00282 1.74122 -0.09823
							}
						}
					}
				}
				JOINT LeftShoulder
				{
					OFFSET 0 0 0
					CHANNELS 3 Zrotation Yrotation Xrotation
					JOINT LeftArm
					{
						OFFSET 3.36358 1.00547 -0.37661
						CHANNELS 3 Zrotation Yrotation Xrotation
						JOINT LeftForeArm
						{
							OFFSET 5.06507 -0.00000 0.00000
							CHANNELS 3 Zrotation Yrotation Xrotation
							JOINT LeftHand
							{
								OFFSET 3.60196 -0.00000 0.00000
								CHANNELS 3 Zrotation Yrotation Xrotation
								JOINT LeftFingerBase
								{
									OFFSET 0 0 0
									CHANNELS 3 Zrotation Yrotation Xrotation
									JOINT LeftHandIndex1
									{
										OFFSET 0.45035 -0.00000 0.00000
										CHANNELS 3 Zrotation Yrotation Xrotation
										End Site
										{
											OFFSET 0.36308 -0.00000 0.00000
										}
									}
								}
								JOINT LThumb
								{
									OFFSET 0 0 0
									CHANNELS 3 Zrotation Yrotation Xrotation
									End Site
									{
										OFFSET 0.36862 -0.00000 0.36862
									}
								}
							}
						}
					}
				}
				JOINT RightShoulder
				{
					OFFSET 0 0 0
					CHANNELS 3 Zrotation Yrotation Xrotation
					JOINT RightArm
					{
						OFFSET -3.50159 0.80383 -0.71526
						CHANNELS 3 Zrotation Yrotation Xrotation
						JOINT RightForeArm
						{
							OFFSET -5.36394 -0.00000 0.00000
							CHANNELS 3 Zrotation Yrotation Xrotation
							JOINT RightHand
							{
								OFFSET -3.58035 -0.00000 0.00000
								CHANNELS 3 Zrotation Yrotation Xrotation
								JOINT RightFingerBase
								{
									OFFSET 0 0 0
									CHANNELS 3 Zrotation Yrotation Xrotation
									JOINT RightHandIndex1
									{
										OFFSET -0.66375 -0.00000 0.00000
										CHANNELS 3 Zrotation Yrotation Xrotation
										End Site
										{
											OFFSET -0.53513 -0.00000 0.00000
										}
									}
								}
								JOINT RThumb
								{
									OFFSET 0 0 0
									CHANNELS 3 Zrotation Yrotation Xrotation
									End Site
									{
										OFFSET -0.54330 -0.00000 0.54330
									}
								}
							}
						}
					}
				}
			}
		}
	}
}
MOTION
Frames: 13
Frame Time: 0.153846
0.00 0.00 0.00 0 0 0 0 0 0 -21 0 0 0 0 0 0 0 0 0 0 0 0 0 0 21 0 0 0 0 0 0 0 0 0 0 0 0 0 0 0 0 0 0 0 0 0 0 -16 0 0 21 0 0 11 0 0 0 -8 0 0 0 0 0 0 0 0 0 0 0 0 0 0 0 0 0 0 0 0 8 0 0 0 0 0 0 0 0 0 0 0 0 0 0 0 0 0
0.00 0.00 0.00 -6.0407 -4.0127 -2.4566 0.0000 0.0000 0.0000 -11.5869 -8.2138 -24.9725 6.8607 15.2134 48.3454 0.0000 0.0000 0.0000 0.0000 0.0000 0.0000 0.0000 0.0000 0.0000 33.1125 10.6729 -3.7386 -2.9421 -10.6007 30.9448 -1.1103 1.0817 -19.5897 -0.2580 -3.2681 9.0262 5.0035 0.7516 11.8188 2.7399 1.8158 0.9691 -0.2377 0.8026 -5.5518 -1.6577 -3.2246 -17.7742 0.0404 -4.0067 18.6933 -0.2220 -1.9968 8.8146 -0.0000 -0.0000 0.0000 -84.5891 1.4680 31.2426 14.0610 -22.8219 -2.8517 -0.0000 0.0000 -8.4094 37.0554 3.6704 2.7673 -7.1250 0.0000 -0.0000 8.6022 34.4752 -2.2433 -0.0000 -0.0000 0.0000 86.9365 4.3442 19.2316 -15.9686 25.4780 -3.6324 0.0000 -0.0000 -0.3746 -19.7458 21.7182 -7.5662 7.1250 -0.0000 -0.0000 5.6835 -7.1354 4.9586
0.00 0.00 0.00 -6.6441 -4.1375 -1.5324 0.0000 0.0000 0.0000 -9.0651 -13.0854 -25.6810 3.1329 10.9071 31.9673 0.0000 0.0000 0.0000 0.0000 0.0000 0.0000 0.0000 0.0000 0.0000 34.0188 9.0765 0.9947 -2.3939 -9.6424 27.8264 -1.3425 0.5395 -21.7460 -0.1454 -2.4572 6.7709 5.9053 0.9742 11.3771 2.5293 2.1718 1.1044 -1.0076 0.9673 -5.1067 -1.4800 -3.3406 -18.6745 0.2376 -4.2366 18.2959 -0.2250 -2.0666 8.8411 0.0000 -0.0000 0.0000 -85.1433 2.4782 28.7468 12.8651 -21.0892 -2.4045 -0.0000 0.0000 -7.4742 27.2503 22.8536 11.3116 -7.1250 0.0000 -0.0000 -1.9312 55.3340 -0.4900 0.0000 -0.0000 0.0000 86.1029 7.2141 20.9136 -16.7722 26.5565 -3.9850 0.0000 -0.0000 -1.3271 -19.8073 21.6929 -7.5831 7.1250 -0.0000 -0.0000 5.6426 -7.1525 4.9207
0.00 0.00 0.00 -6.9090 -4.8784 -1.1041 0.0000 0.0000 0.0000 -6.7111 -16.5488 -23.4317 0.8774 5.9718 16.7025 0.0710 4.1805 -8.2247 0.0097 0.6358 1.7471 0.0000 0.0000 0.0000 34.5240 7.9811 5.3917 -2.1036 -9.0787 26.0419 -1.4245 -0.5364 -22.7705 -0.0411 -1.3088 3.5990 6.1338 1.7032 11.2098 2.0643 3.0636 2.1774 -1.7235 1.4547 -3.7920 -0.2794 -3.6563 -23.5881 0.0646 -4.9777 19.5061 -0.6929 -2.3025 10.1081 -0.0000 -0.0000 0.0000 -84.8081 1.1948 27.2458 11.8271 -19.5448 -2.0441 -0.0000 0.0000 -4.0368 29.4422 24.0530 12.9558 -7.1250 0.0000 -0.0000 0.1330 57.1163 0.0395 -0.0000 -0.0000 0.0000 86.1815 11.1524 19.9617 -16.8509 26.6608 -4.0202 0.0000 -0.0000 -0.7680 -20.8652 22.0048 -8.1279 7.1250 -0.0000 -0.0000 5.0004 -6.6665 4.4033
0.00 0.00 0.00 -4.0727 -5.6405 -1.3771 0.0000 0.0000 0.0000 -13.2413 -13.4546 -21.2421 1.1818 6.8993 19.4173 -0.0010 0.6105 0.0657 0.0217 -0.9513 -2.6149 0.0000 0.0000 0.0000 27.6499 1.4091 12.1926 -3.6067 -11.6178 34.3931 -0.2293 4.1296 -8.5618 -0.1373 2.3881 -6.5794 3.2912 2.1978 8.9199 1.5240 3.3454 -0.0603 -0.6947 1.5883 -4.9690 -1.7693 -3.4781 -15.5762 0.6034 -4.4993 18.9786 -0.0387 -2.1868 8.5379 -0.0000 -0.0000 0.0000 -87.6527 10.4482 19.8762 9.2967 -15.6320 -1.2789 -0.0000 0.0000 -0.1790 27.7708 27.0214 13.4546 -7.1250 0.0000 -0.0000 -2.7815 59.9168 -1.0130 -0.0000 -0.0000 0.0000 86.5106 4.0719 17.2691 -17.0363 26.9057 -4.1038 0.0000 0.0000 0.7552 -19.2910 21.5499 -7.3261 7.1250 -0.0000 -0.0000 5.9586 -7.3764 5.1731
0.00 0.00 0.00 -3.5546 -4.8785 -1.9940 0.0000 0.0000 0.0000 -15.3998 -10.8777 -20.7088 1.7613 8.3500 23.7823 -0.0151 -2.3207 -0.0018 0.0536 -1.4944 -4.1102 0.0000 0.0000 0.0000 25.7987 1.2696 7.7559 -5.9279 -14.3581 44.6918 -0.0781 2.5428 6.8503 -0.0448 -1.3668 3.7585 3.0583 1.9821 9.0969 1.3970 3.0436 -0.2920 -0.6710 1.4358 -5.3264 -1.7424 -3.5187 -15.5472 0.5181 -4.5474 19.1189 -0.0785 -2.2164 8.5780 0.0000 -0.0000 0.0000 -87.7406 10.7140 19.0286 8.6581 -14.6140 -1.1123 -0.0000 0.0000 -0.9977 26.7332 28.8590 13.6636 -7.1250 0.0000 -0.0000 -4.8311 61.5926 -1.9536 0.0000 -0.0000 0.0000 87.5454 2.0036 13.5224 -16.3817 26.0355 -3.8120 0.0000 0.0000 2.7384 -18.7951 23.4015 -7.6980 7.1250 -0.0000 -0.0000 6.4117 -5.5425 5.7997
0.00 0.00 0.00 -1.1951 -4.9904 -2.6027 0.0000 0.0000 0.0000 -19.7945 -8.7451 -16.2877 1.8921 8.6376 24.6682 0.0111 -2.8691 -2.6016 0.0337 -1.1843 -3.2560 0.0000 0.0000 0.0000 22.3843 4.2886 -1.3298 -10.4203 -17.6395 60.8841 -0.8946 -4.3444 16.9414 -0.3767 -3.9421 10.9137 0.7182 1.9213 9.3455 0.9435 2.6854 0.0064 0.2110 1.3176 -5.2477 -1.8748 -3.3188 -16.5182 0.4711 -4.2051 18.9777 -0.0472 -2.0649 8.7031 0.0000 0.0000 0.0000 -87.4088 9.6010 20.7092 9.4751 -15.9144 -1.3274 -0.0000 0.0000 -2.9708 27.9513 26.0356 13.1108 -7.1250 0.0000 -0.0000 -2.1922 58.9096 -0.7455 0.0000 0.0000 0.0000 88.3069 1.0360 11.5863 -15.6556 25.0514 -3.4988 0.0000 0.0000 1.2155 -18.3310 22.4079 -7.1982 7.1250 -0.0000 -0.0000 6.6262 -6.6319 5.8569
0.00 0.00 0.00 0.2678 -2.6283 -2.9888 0.0000 0.0000 0.0000 -23.2351 -7.3862 -9.6620 1.6854 8.1774 23.2543 0.1377 -3.2947 -6.6422 0.0095 -0.6289 -1.7282 0.0000 0.0000 0.0000 19.9160 4.1214 -13.2676 -13.7214 -19.0274 71.3520 0.0461 -5.0991 1.7563 -0.3058 -3.5552 9.8284 -1.0122 1.0343 9.6227 0.9204 1.3152 -0.2304 1.3425 0.6901 -5.6884 -1.7942 -3.1548 -15.6565 0.0405 -3.9255 19.0915 -0.1574 -1.9780 8.5721 -0.0000 -0.0000 0.0000 -86.1936 6.8036 22.9796 10.2333 -17.1037 -1.5429 -0.0000 0.0000 -1.5833 29.4626 26.4076 14.1034 -7.1250 0.0000 -0.0000 -0.5779 59.6761 -0.2071 -0.0000 -0.0000 0.0000 88.8327 -0.2428 9.0311 -14.2269 23.0582 -2.9164 0.0000 0.0000 4.8820 -14.2729 13.1922 -3.3227 7.1250 -0.0000 -0.0000 8.9921 -16.4895 6.1469
0.00 0.00 0.00 1.3236 -0.8236 -2.4908 0.0000 0.0000 0.0000 -25.7973 -4.5332 -2.8439 2.0449 8.9590 25.6671 0.7979 -4.0441 -15.9974 0.0144 0.7757 2.1318 0.0000 0.0000 0.0000 18.2964 8.2443 -29.6056 -9.3861 -17.0499 57.4162 -0.3901 -3.7688 -13.7912 -0.0873 1.9059 -5.2457 -2.2935 0.0266 11.4976 1.2029 -0.1917 0.1833 2.5937 -0.0062 -6.2543 -1.7715 -2.9901 -17.4977 0.3592 -3.7200 17.8980 -0.0473 -1.8390 8.5009 0.0000 -0.0000 0.0000 -82.3866 -1.1981 31.3295 14.8988 -24.0050 -3.1847 -0.0000 0.0000 -9.6291 29.2875 26.4582 14.0309 -7.1250 0.0000 -0.0000 -0.8006 59.6875 -0.2871 0.0000 -0.0000 0.0000 89.4300 -0.8810 9.1092 -13.9836 22.7113 -2.8218 0.0000 0.0000 3.0864 -15.8876 18.7695 -5.2326 7.1250 -0.0000 -0.0000 7.9936 -10.6672 6.4404
0.00 0.00 0.00 3.8389 1.3422 -0.3775 0.0000 0.0000 0.0000 -27.7311 1.4401 11.2134 0.6501 5.1577 14.3590 0.8174 -5.1326 -16.1267 0.0006 -0.1526 -0.4194 0.0000 0.0000 0.0000 10.6004 19.2005 -26.8075 -0.6355 -5.1004 14.1951 -0.3843 -10.0650 -19.3580 -0.0902 -1.9374 5.3326 -4.8274 -1.1915 11.7239 1.1017 -2.1588 0.4541 4.2438 -0.9128 -5.8828 -1.9178 -2.9102 -18.2028 0.2897 -3.5254 16.5751 -0.0213 -1.7624 8.1779 -0.0000 0.0000 0.0000 -78.1338 -9.8916 34.3427 17.4353 -27.4280 -4.2859 -0.0000 0.0000 -7.6661 30.9505 28.5446 15.9900 -7.1250 0.0000 -0.0000 0.4315 62.3654 0.1821 -0.0000 0.0000 0.0000 90.0024 0.0674 8.8164 -13.6549 22.2392 -2.6961 0.0000 0.0000 3.8914 -16.5314 22.0282 -6.3521 7.1250 -0.0000 -0.0000 7.7335 -7.2699 6.7561
0.00 0.00 0.00 1.2835 0.3248 -0.5031 0.0000 0.0000 0.0000 -24.9213 0.1386 11.7776 3.3451 11.2338 33.0726 -0.0499 -3.9796 1.8875 0.7949 -5.6909 -15.8900 0.0000 0.0000 0.0000 18.4633 12.5685 -28.4667 -2.9953 -10.6875 31.2330 -0.0245 -3.6670 -6.2251 -0.0258 -1.0372 2.8513 -2.1662 -1.5759 11.7007 2.3840 -2.2319 -0.0982 4.1229 -0.9833 -6.4959 -2.1470 -2.4445 -17.8779 -0.4073 -2.6942 17.4022 -0.1174 -1.4612 8.3849 0.0000 -0.0000 0.0000 -81.0261 -6.7601 30.9302 16.1495 -25.7229 -3.7106 -0.0000 0.0000 -5.9746 32.3203 27.1484 16.1027 -7.1250 0.0000 -0.0000 2.6141 61.2106 1.0324 0.0000 -0.0000 0.0000 89.6029 -0.8898 4.6004 -12.1200 19.9844 -2.1431 0.0000 0.0000 8.0683 -18.4835 23.7853 -7.6782 7.1250 -0.0000 -0.0000 6.6356 -5.1963 6.0489
0.00 0.00 0.00 -1.6144 -0.1283 -0.8314 0.0000 0.0000 0.0000 -20.6996 -1.2289 2.9825 7.1537 15.4599 49.4532 0.7789 -4.7228 19.0399 0.3743 3.9297 10.8791 0.0000 0.0000 0.0000 23.7310 10.4293 -22.9920 -2.9060 -10.5413 30.7479 -0.1116 -1.9258 -7.3273 -0.0590 -1.5679 4.3128 0.4523 -1.3771 11.7115 3.0380 -1.5617 -0.1828 3.2237 -0.7260 -6.7005 -1.8327 -2.6284 -17.9522 -0.4033 -3.0342 18.2140 -0.2180 -1.6016 8.6708 -0.0000 -0.0000 0.0000 -82.0310 -4.5733 32.4926 15.2300 -24.4656 -3.3206 -0.0000 0.0000 -6.8862 28.1778 18.6883 9.7398 -7.1250 0.0000 -0.0000 0.0069 50.9732 0.0010 -0.0000 -0.0000 0.0000 89.3902 -0.4924 5.3297 -12.0775 19.9208 -2.1286 0.0000 0.0000 7.9731 -17.8139 22.8666 -7.1174 7.1250 -0.0000 -0.0000 6.9827 -6.2366 6.2303
0.00 0.00 0.00 2.4070 -0.9379 -1.0366 0.0000 0.0000 0.0000 -28.2190 1.1398 6.2362 1.0014 6.3679 17.8556 0.7922 -9.7826 -16.2857 0.0972 2.0102 5.5339 0.0000 0.0000 0.0000 16.5777 13.1545 -30.1809 -4.2384 -12.4710 37.4193 0.1751 -9.3461 -9.5082 -0.0105 0.6606 -1.8154 -3.8375 -0.2357 11.3530 0.6927 -0.7775 -0.1000 3.0268 -0.2462 -6.4258 -2.0937 -2.8064 -17.6440 1.6659 -3.6333 16.7690 0.4596 -1.6847 8.1777 -0.0000 -0.0000 0.0000 -80.1635 -4.8549 21.8117 17.2277 -27.1570 -4.1907 -0.0000 0.0000 -7.2356 30.7447 26.1723 14.7006 -7.1250 0.0000 -0.0000 1.0091 59.7391 0.3631 -0.0000 -0.0000 0.0000 90.2658 -1.8248 5.5382 -14.0138 22.7544 -2.8334 0.0000 0.0000 5.3668 -15.6115 18.6795 -5.1139 7.1250 -0.0000 -0.0000 8.1703 -10.7896 6.5652
